<svg width="69" height="64" viewBox="0 0 69 64" fill="none" xmlns="http://www.w3.org/2000/svg">
<g filter="url(#filter0_d_385_4)">
<rect x="4" width="61" height="56" fill="#C4C4C4"/>
</g>
<path d="M35.4844 11C25.8242 10.9961 18 18.8164 18 28.4688C18 36.1016 22.8945 42.5899 29.7109 44.9727C30.6289 45.2032 30.4883 44.5508 30.4883 44.1055V41.0782C25.1875 41.6992 24.9727 38.1914 24.6172 37.6055C23.8984 36.3789 22.1992 36.0664 22.707 35.4805C23.9141 34.8594 25.1445 35.6367 26.5703 37.7422C27.6016 39.2696 29.6133 39.0117 30.6328 38.7578C30.8555 37.8399 31.332 37.0196 31.9883 36.3828C26.4961 35.3985 24.207 32.0469 24.207 28.0625C24.207 26.1289 24.8438 24.3516 26.0938 22.918C25.2969 20.5547 26.168 18.5313 26.2852 18.2305C28.5547 18.0274 30.9141 19.8555 31.0977 20C32.3867 19.6524 33.8594 19.4688 35.5078 19.4688C37.1641 19.4688 38.6406 19.6602 39.9414 20.0117C40.3828 19.6758 42.5703 18.1055 44.6797 18.2969C44.793 18.5977 45.6445 20.5742 44.8945 22.9063C46.1602 24.3438 46.8047 26.1367 46.8047 28.0742C46.8047 32.0664 44.5 35.4219 38.9922 36.3906C39.4639 36.8546 39.8385 37.4079 40.0941 38.0182C40.3496 38.6285 40.481 39.2837 40.4805 39.9453V44.3399C40.5117 44.6914 40.4805 45.0391 41.0664 45.0391C47.9844 42.7071 52.9648 36.1719 52.9648 28.4727C52.9648 18.8164 45.1367 11 35.4844 11Z" fill="black"/>
<defs>
<filter id="filter0_d_385_4" x="0" y="0" width="69" height="64" filterUnits="userSpaceOnUse" color-interpolation-filters="sRGB">
<feFlood flood-opacity="0" result="BackgroundImageFix"/>
<feColorMatrix in="SourceAlpha" type="matrix" values="0 0 0 0 0 0 0 0 0 0 0 0 0 0 0 0 0 0 127 0" result="hardAlpha"/>
<feOffset dy="4"/>
<feGaussianBlur stdDeviation="2"/>
<feColorMatrix type="matrix" values="0 0 0 0 0 0 0 0 0 0 0 0 0 0 0 0 0 0 0.25 0"/>
<feBlend mode="normal" in2="BackgroundImageFix" result="effect1_dropShadow_385_4"/>
<feBlend mode="normal" in="SourceGraphic" in2="effect1_dropShadow_385_4" result="shape"/>
</filter>
</defs>
</svg>
