<svg width="1918" height="1022" viewBox="0 0 1918 1022" fill="none" xmlns="http://www.w3.org/2000/svg">
<g clip-path="url(#clip0_376_3)">
<rect width="1920" height="1022" transform="translate(-2)" fill="#D7D7D7"/>
<path d="M981.5 -192L2758.2 110.65L2527.48 1465.13L750.773 1162.48L981.5 -192Z" fill="black"/>
<path d="M1191.86 960.156V962.075H1193.34V963.123H1191.86V968.037C1191.86 968.354 1191.93 968.594 1192.06 968.755C1192.19 968.911 1192.42 968.989 1192.74 968.989C1192.89 968.989 1193.11 968.96 1193.38 968.901V970C1193.02 970.098 1192.68 970.146 1192.34 970.146C1191.73 970.146 1191.28 969.963 1190.97 969.597C1190.66 969.231 1190.51 968.711 1190.51 968.037V963.123H1189.07V962.075H1190.51V960.156H1191.86ZM1196.29 963.035C1196.89 962.297 1197.67 961.929 1198.63 961.929C1200.31 961.929 1201.15 962.874 1201.17 964.763V970H1199.81V964.756C1199.81 964.185 1199.67 963.762 1199.42 963.489C1199.16 963.215 1198.76 963.079 1198.22 963.079C1197.78 963.079 1197.4 963.196 1197.06 963.43C1196.73 963.665 1196.47 963.972 1196.29 964.353V970H1194.93V958.75H1196.29V963.035ZM1204.67 970H1203.31V962.075H1204.67V970ZM1203.2 959.973C1203.2 959.753 1203.27 959.568 1203.4 959.417C1203.54 959.265 1203.74 959.189 1204 959.189C1204.26 959.189 1204.46 959.265 1204.6 959.417C1204.74 959.568 1204.81 959.753 1204.81 959.973C1204.81 960.193 1204.74 960.376 1204.6 960.522C1204.46 960.669 1204.26 960.742 1204 960.742C1203.74 960.742 1203.54 960.669 1203.4 960.522C1203.27 960.376 1203.2 960.193 1203.2 959.973ZM1211.46 967.898C1211.46 967.532 1211.32 967.249 1211.04 967.048C1210.77 966.843 1210.28 966.667 1209.6 966.521C1208.91 966.375 1208.37 966.199 1207.96 965.994C1207.56 965.789 1207.26 965.544 1207.07 965.261C1206.88 964.978 1206.78 964.641 1206.78 964.25C1206.78 963.601 1207.06 963.052 1207.6 962.603C1208.16 962.153 1208.86 961.929 1209.71 961.929C1210.61 961.929 1211.34 962.161 1211.9 962.625C1212.46 963.088 1212.74 963.682 1212.74 964.404H1211.38C1211.38 964.033 1211.22 963.713 1210.9 963.445C1210.59 963.176 1210.19 963.042 1209.71 963.042C1209.22 963.042 1208.83 963.149 1208.56 963.364C1208.28 963.579 1208.14 963.86 1208.14 964.207C1208.14 964.534 1208.27 964.78 1208.53 964.946C1208.79 965.112 1209.25 965.271 1209.93 965.422C1210.6 965.574 1211.15 965.754 1211.57 965.964C1211.99 966.174 1212.3 966.428 1212.5 966.726C1212.71 967.019 1212.81 967.378 1212.81 967.803C1212.81 968.511 1212.53 969.08 1211.96 969.509C1211.4 969.934 1210.66 970.146 1209.76 970.146C1209.12 970.146 1208.56 970.034 1208.07 969.81C1207.58 969.585 1207.2 969.272 1206.92 968.872C1206.65 968.467 1206.51 968.03 1206.51 967.561H1207.87C1207.89 968.015 1208.07 968.376 1208.41 968.645C1208.75 968.909 1209.2 969.041 1209.76 969.041C1210.27 969.041 1210.68 968.938 1210.99 968.733C1211.3 968.523 1211.46 968.245 1211.46 967.898ZM1220.19 970H1218.84V962.075H1220.19V970ZM1218.73 959.973C1218.73 959.753 1218.79 959.568 1218.92 959.417C1219.06 959.265 1219.26 959.189 1219.52 959.189C1219.79 959.189 1219.99 959.265 1220.13 959.417C1220.26 959.568 1220.33 959.753 1220.33 959.973C1220.33 960.193 1220.26 960.376 1220.13 960.522C1219.99 960.669 1219.79 960.742 1219.52 960.742C1219.26 960.742 1219.06 960.669 1218.92 960.522C1218.79 960.376 1218.73 960.193 1218.73 959.973ZM1226.98 967.898C1226.98 967.532 1226.84 967.249 1226.56 967.048C1226.29 966.843 1225.81 966.667 1225.12 966.521C1224.44 966.375 1223.89 966.199 1223.49 965.994C1223.09 965.789 1222.79 965.544 1222.59 965.261C1222.4 964.978 1222.31 964.641 1222.31 964.25C1222.31 963.601 1222.58 963.052 1223.13 962.603C1223.68 962.153 1224.38 961.929 1225.24 961.929C1226.14 961.929 1226.86 962.161 1227.42 962.625C1227.98 963.088 1228.26 963.682 1228.26 964.404H1226.9C1226.9 964.033 1226.74 963.713 1226.42 963.445C1226.11 963.176 1225.72 963.042 1225.24 963.042C1224.74 963.042 1224.36 963.149 1224.08 963.364C1223.8 963.579 1223.66 963.86 1223.66 964.207C1223.66 964.534 1223.79 964.78 1224.05 964.946C1224.31 965.112 1224.78 965.271 1225.45 965.422C1226.13 965.574 1226.68 965.754 1227.1 965.964C1227.52 966.174 1227.83 966.428 1228.03 966.726C1228.23 967.019 1228.34 967.378 1228.34 967.803C1228.34 968.511 1228.05 969.08 1227.49 969.509C1226.92 969.934 1226.18 970.146 1225.28 970.146C1224.65 970.146 1224.09 970.034 1223.6 969.81C1223.11 969.585 1222.73 969.272 1222.45 968.872C1222.17 968.467 1222.04 968.03 1222.04 967.561H1223.39C1223.42 968.015 1223.6 968.376 1223.93 968.645C1224.28 968.909 1224.72 969.041 1225.28 969.041C1225.79 969.041 1226.2 968.938 1226.51 968.733C1226.82 968.523 1226.98 968.245 1226.98 967.898ZM1235.53 962.075L1235.57 963.071C1236.17 962.31 1236.97 961.929 1237.94 961.929C1239.62 961.929 1240.46 962.874 1240.48 964.763V970H1239.12V964.756C1239.12 964.185 1238.98 963.762 1238.73 963.489C1238.47 963.215 1238.07 963.079 1237.53 963.079C1237.09 963.079 1236.71 963.196 1236.38 963.43C1236.04 963.665 1235.78 963.972 1235.6 964.353V970H1234.24V962.075H1235.53ZM1242.16 965.964C1242.16 965.188 1242.31 964.49 1242.62 963.87C1242.92 963.25 1243.35 962.771 1243.89 962.434C1244.44 962.097 1245.06 961.929 1245.76 961.929C1246.84 961.929 1247.71 962.302 1248.37 963.049C1249.04 963.796 1249.38 964.79 1249.38 966.03V966.125C1249.38 966.897 1249.23 967.59 1248.93 968.206C1248.64 968.816 1248.21 969.292 1247.66 969.634C1247.11 969.976 1246.48 970.146 1245.77 970.146C1244.7 970.146 1243.83 969.773 1243.16 969.026C1242.49 968.279 1242.16 967.29 1242.16 966.06V965.964ZM1243.52 966.125C1243.52 967.004 1243.73 967.71 1244.13 968.242C1244.54 968.774 1245.09 969.041 1245.77 969.041C1246.46 969.041 1247.01 968.772 1247.41 968.235C1247.82 967.693 1248.02 966.936 1248.02 965.964C1248.02 965.095 1247.81 964.392 1247.4 963.855C1246.99 963.313 1246.44 963.042 1245.76 963.042C1245.09 963.042 1244.55 963.308 1244.14 963.84C1243.73 964.373 1243.52 965.134 1243.52 966.125ZM1252.91 960.156V962.075H1254.39V963.123H1252.91V968.037C1252.91 968.354 1252.98 968.594 1253.11 968.755C1253.24 968.911 1253.47 968.989 1253.78 968.989C1253.94 968.989 1254.16 968.96 1254.43 968.901V970C1254.07 970.098 1253.73 970.146 1253.39 970.146C1252.78 970.146 1252.33 969.963 1252.02 969.597C1251.71 969.231 1251.56 968.711 1251.56 968.037V963.123H1250.12V962.075H1251.56V960.156H1252.91ZM1261.4 962.075L1261.44 962.954C1262.02 962.271 1262.8 961.929 1263.79 961.929C1264.9 961.929 1265.65 962.354 1266.05 963.203C1266.31 962.822 1266.66 962.515 1267.08 962.28C1267.5 962.046 1268 961.929 1268.58 961.929C1270.32 961.929 1271.2 962.849 1271.23 964.69V970H1269.87V964.771C1269.87 964.204 1269.74 963.782 1269.49 963.503C1269.23 963.22 1268.79 963.079 1268.18 963.079C1267.68 963.079 1267.26 963.23 1266.93 963.533C1266.6 963.831 1266.4 964.233 1266.35 964.741V970H1264.99V964.807C1264.99 963.655 1264.42 963.079 1263.3 963.079C1262.41 963.079 1261.8 963.457 1261.47 964.214V970H1260.12V962.075H1261.4ZM1275.87 968.015L1277.72 962.075H1279.17L1275.98 971.223C1275.49 972.542 1274.7 973.201 1273.63 973.201L1273.37 973.179L1272.87 973.083V971.985L1273.24 972.014C1273.69 972.014 1274.05 971.921 1274.3 971.736C1274.56 971.55 1274.78 971.211 1274.94 970.718L1275.24 969.912L1272.41 962.075H1273.89L1275.87 968.015ZM1291.22 966.125C1291.22 967.332 1290.94 968.303 1290.39 969.041C1289.84 969.778 1289.09 970.146 1288.15 970.146C1287.19 970.146 1286.43 969.841 1285.88 969.231V973.047H1284.53V962.075H1285.76L1285.83 962.954C1286.38 962.271 1287.15 961.929 1288.13 961.929C1289.08 961.929 1289.83 962.288 1290.39 963.005C1290.94 963.723 1291.22 964.722 1291.22 966.001V966.125ZM1289.87 965.972C1289.87 965.078 1289.68 964.373 1289.29 963.855C1288.91 963.337 1288.39 963.079 1287.73 963.079C1286.91 963.079 1286.29 963.442 1285.88 964.17V967.957C1286.29 968.679 1286.91 969.041 1287.74 969.041C1288.39 969.041 1288.91 968.784 1289.29 968.271C1289.67 967.754 1289.87 966.987 1289.87 965.972ZM1294.3 963.035C1294.9 962.297 1295.69 961.929 1296.65 961.929C1298.32 961.929 1299.17 962.874 1299.18 964.763V970H1297.83V964.756C1297.82 964.185 1297.69 963.762 1297.43 963.489C1297.18 963.215 1296.78 963.079 1296.24 963.079C1295.8 963.079 1295.41 963.196 1295.08 963.43C1294.75 963.665 1294.49 963.972 1294.3 964.353V970H1292.95V958.75H1294.3V963.035ZM1300.85 965.964C1300.85 965.188 1301 964.49 1301.31 963.87C1301.61 963.25 1302.04 962.771 1302.58 962.434C1303.13 962.097 1303.75 961.929 1304.45 961.929C1305.53 961.929 1306.4 962.302 1307.06 963.049C1307.73 963.796 1308.07 964.79 1308.07 966.03V966.125C1308.07 966.897 1307.92 967.59 1307.62 968.206C1307.33 968.816 1306.9 969.292 1306.35 969.634C1305.81 969.976 1305.18 970.146 1304.46 970.146C1303.39 970.146 1302.52 969.773 1301.85 969.026C1301.18 968.279 1300.85 967.29 1300.85 966.06V965.964ZM1302.21 966.125C1302.21 967.004 1302.42 967.71 1302.82 968.242C1303.23 968.774 1303.78 969.041 1304.46 969.041C1305.15 969.041 1305.7 968.772 1306.1 968.235C1306.51 967.693 1306.71 966.936 1306.71 965.964C1306.71 965.095 1306.5 964.392 1306.09 963.855C1305.68 963.313 1305.13 963.042 1304.45 963.042C1303.78 963.042 1303.24 963.308 1302.83 963.84C1302.42 964.373 1302.21 965.134 1302.21 966.125ZM1311.6 960.156V962.075H1313.08V963.123H1311.6V968.037C1311.6 968.354 1311.67 968.594 1311.8 968.755C1311.93 968.911 1312.16 968.989 1312.48 968.989C1312.63 968.989 1312.85 968.96 1313.12 968.901V970C1312.76 970.098 1312.42 970.146 1312.08 970.146C1311.47 970.146 1311.02 969.963 1310.71 969.597C1310.4 969.231 1310.25 968.711 1310.25 968.037V963.123H1308.81V962.075H1310.25V960.156H1311.6ZM1314.17 965.964C1314.17 965.188 1314.32 964.49 1314.62 963.87C1314.93 963.25 1315.35 962.771 1315.9 962.434C1316.44 962.097 1317.07 961.929 1317.76 961.929C1318.84 961.929 1319.71 962.302 1320.38 963.049C1321.05 963.796 1321.38 964.79 1321.38 966.03V966.125C1321.38 966.897 1321.23 967.59 1320.94 968.206C1320.64 968.816 1320.22 969.292 1319.67 969.634C1319.12 969.976 1318.49 970.146 1317.78 970.146C1316.7 970.146 1315.83 969.773 1315.16 969.026C1314.5 968.279 1314.17 967.29 1314.17 966.06V965.964ZM1315.53 966.125C1315.53 967.004 1315.73 967.71 1316.14 968.242C1316.55 968.774 1317.09 969.041 1317.78 969.041C1318.47 969.041 1319.01 968.772 1319.42 968.235C1319.82 967.693 1320.03 966.936 1320.03 965.964C1320.03 965.095 1319.82 964.392 1319.4 963.855C1318.99 963.313 1318.45 963.042 1317.76 963.042C1317.09 963.042 1316.56 963.308 1316.15 963.84C1315.73 964.373 1315.53 965.134 1315.53 966.125ZM1323.04 972.124L1322.27 971.597C1322.73 970.957 1322.97 970.298 1322.99 969.619V968.396H1324.31V969.458C1324.31 969.951 1324.19 970.444 1323.95 970.938C1323.71 971.431 1323.4 971.826 1323.04 972.124ZM1196.73 984.125C1196.73 985.336 1196.46 986.311 1195.9 987.048C1195.34 987.78 1194.6 988.146 1193.66 988.146C1192.66 988.146 1191.88 987.792 1191.34 987.084L1191.27 988H1190.03V976.75H1191.38V980.947C1191.93 980.268 1192.68 979.929 1193.64 979.929C1194.61 979.929 1195.36 980.292 1195.91 981.02C1196.46 981.748 1196.73 982.744 1196.73 984.008V984.125ZM1195.38 983.972C1195.38 983.049 1195.2 982.336 1194.84 981.833C1194.49 981.33 1193.98 981.079 1193.31 981.079C1192.41 981.079 1191.77 981.494 1191.38 982.324V985.751C1191.8 986.582 1192.44 986.997 1193.32 986.997C1193.97 986.997 1194.48 986.745 1194.84 986.242C1195.2 985.739 1195.38 984.982 1195.38 983.972ZM1203.34 987.216C1202.81 987.836 1202.04 988.146 1201.02 988.146C1200.17 988.146 1199.53 987.902 1199.09 987.414C1198.65 986.921 1198.42 986.193 1198.42 985.231V980.075H1199.77V985.195C1199.77 986.396 1200.26 986.997 1201.24 986.997C1202.27 986.997 1202.96 986.611 1203.3 985.839V980.075H1204.66V988H1203.37L1203.34 987.216ZM1208.56 978.156V980.075H1210.04V981.123H1208.56V986.037C1208.56 986.354 1208.63 986.594 1208.76 986.755C1208.89 986.911 1209.12 986.989 1209.43 986.989C1209.59 986.989 1209.81 986.96 1210.08 986.901V988C1209.72 988.098 1209.38 988.146 1209.04 988.146C1208.43 988.146 1207.98 987.963 1207.67 987.597C1207.36 987.231 1207.21 986.711 1207.21 986.037V981.123H1205.77V980.075H1207.21V978.156H1208.56ZM1219.2 988H1217.79V977.336H1219.2V988ZM1227.08 983.972C1227.08 982.756 1227.37 981.779 1227.94 981.042C1228.52 980.3 1229.28 979.929 1230.21 979.929C1231.14 979.929 1231.87 980.246 1232.41 980.881V976.75H1233.77V988H1232.52L1232.46 987.15C1231.91 987.814 1231.16 988.146 1230.19 988.146C1229.28 988.146 1228.53 987.771 1227.94 987.019C1227.37 986.267 1227.08 985.285 1227.08 984.074V983.972ZM1228.44 984.125C1228.44 985.024 1228.62 985.727 1228.99 986.235C1229.36 986.743 1229.88 986.997 1230.53 986.997C1231.39 986.997 1232.02 986.611 1232.41 985.839V982.199C1232.01 981.452 1231.38 981.079 1230.54 981.079C1229.88 981.079 1229.36 981.335 1228.99 981.848C1228.62 982.36 1228.44 983.12 1228.44 984.125ZM1239.17 988.146C1238.09 988.146 1237.22 987.795 1236.54 987.092C1235.87 986.384 1235.53 985.439 1235.53 984.257V984.008C1235.53 983.222 1235.68 982.521 1235.98 981.906C1236.28 981.286 1236.7 980.803 1237.24 980.456C1237.78 980.104 1238.37 979.929 1239 979.929C1240.03 979.929 1240.83 980.268 1241.4 980.947C1241.97 981.625 1242.26 982.597 1242.26 983.862V984.426H1236.89C1236.91 985.207 1237.13 985.839 1237.57 986.323C1238.01 986.801 1238.56 987.041 1239.24 987.041C1239.72 987.041 1240.12 986.943 1240.45 986.748C1240.79 986.552 1241.08 986.293 1241.33 985.971L1242.15 986.616C1241.49 987.636 1240.49 988.146 1239.17 988.146ZM1239 981.042C1238.45 981.042 1237.99 981.242 1237.62 981.643C1237.25 982.038 1237.02 982.595 1236.93 983.312H1240.9V983.21C1240.86 982.521 1240.68 981.989 1240.34 981.613C1240.01 981.232 1239.56 981.042 1239 981.042ZM1248.72 988C1248.65 987.844 1248.58 987.565 1248.53 987.165C1247.9 987.819 1247.15 988.146 1246.28 988.146C1245.5 988.146 1244.85 987.927 1244.35 987.487C1243.85 987.043 1243.6 986.481 1243.6 985.803C1243.6 984.978 1243.92 984.338 1244.54 983.884C1245.17 983.425 1246.06 983.195 1247.19 983.195H1248.51V982.573C1248.51 982.099 1248.37 981.723 1248.09 981.445C1247.8 981.162 1247.39 981.02 1246.83 981.02C1246.35 981.02 1245.95 981.142 1245.62 981.386C1245.29 981.63 1245.13 981.926 1245.13 982.272H1243.77C1243.77 981.877 1243.9 981.496 1244.18 981.13C1244.47 980.759 1244.85 980.466 1245.33 980.251C1245.81 980.036 1246.34 979.929 1246.91 979.929C1247.83 979.929 1248.54 980.158 1249.06 980.617C1249.58 981.071 1249.85 981.699 1249.87 982.5V986.147C1249.87 986.875 1249.96 987.453 1250.14 987.883V988H1248.72ZM1246.48 986.967C1246.9 986.967 1247.3 986.857 1247.68 986.638C1248.06 986.418 1248.34 986.132 1248.51 985.781V984.155H1247.45C1245.79 984.155 1244.96 984.641 1244.96 985.612C1244.96 986.037 1245.1 986.369 1245.38 986.608C1245.67 986.848 1246.03 986.967 1246.48 986.967ZM1255.82 981.291C1255.62 981.257 1255.39 981.24 1255.15 981.24C1254.27 981.24 1253.66 981.618 1253.35 982.375V988H1251.99V980.075H1253.31L1253.33 980.991C1253.77 980.283 1254.4 979.929 1255.22 979.929C1255.48 979.929 1255.68 979.963 1255.82 980.031V981.291ZM1258.55 988H1257.19V976.75H1258.55V988ZM1263.31 986.015L1265.16 980.075H1266.61L1263.42 989.223C1262.93 990.542 1262.15 991.201 1261.07 991.201L1260.82 991.179L1260.31 991.083V989.985L1260.68 990.014C1261.14 990.014 1261.49 989.921 1261.75 989.736C1262 989.55 1262.22 989.211 1262.38 988.718L1262.68 987.912L1259.86 980.075H1261.34L1263.31 986.015ZM1275.03 981.035C1275.63 980.297 1276.41 979.929 1277.37 979.929C1279.04 979.929 1279.89 980.874 1279.9 982.763V988H1278.55V982.756C1278.54 982.185 1278.41 981.762 1278.15 981.489C1277.9 981.215 1277.5 981.079 1276.96 981.079C1276.52 981.079 1276.13 981.196 1275.8 981.43C1275.47 981.665 1275.21 981.972 1275.03 982.353V988H1273.67V976.75H1275.03V981.035ZM1281.57 983.964C1281.57 983.188 1281.73 982.49 1282.03 981.87C1282.34 981.25 1282.76 980.771 1283.3 980.434C1283.85 980.097 1284.47 979.929 1285.17 979.929C1286.25 979.929 1287.12 980.302 1287.78 981.049C1288.45 981.796 1288.79 982.79 1288.79 984.03V984.125C1288.79 984.897 1288.64 985.59 1288.34 986.206C1288.05 986.816 1287.63 987.292 1287.07 987.634C1286.53 987.976 1285.9 988.146 1285.18 988.146C1284.11 988.146 1283.24 987.773 1282.57 987.026C1281.91 986.279 1281.57 985.29 1281.57 984.06V983.964ZM1282.94 984.125C1282.94 985.004 1283.14 985.71 1283.54 986.242C1283.95 986.774 1284.5 987.041 1285.18 987.041C1285.87 987.041 1286.42 986.772 1286.83 986.235C1287.23 985.693 1287.43 984.936 1287.43 983.964C1287.43 983.095 1287.23 982.392 1286.81 981.855C1286.4 981.313 1285.85 981.042 1285.17 981.042C1284.5 981.042 1283.96 981.308 1283.55 981.84C1283.14 982.373 1282.94 983.134 1282.94 984.125ZM1297.18 984.125C1297.18 985.332 1296.91 986.303 1296.35 987.041C1295.8 987.778 1295.06 988.146 1294.11 988.146C1293.15 988.146 1292.39 987.841 1291.84 987.231V991.047H1290.49V980.075H1291.73L1291.79 980.954C1292.34 980.271 1293.11 979.929 1294.09 979.929C1295.04 979.929 1295.79 980.288 1296.35 981.005C1296.9 981.723 1297.18 982.722 1297.18 984.001V984.125ZM1295.83 983.972C1295.83 983.078 1295.64 982.373 1295.26 981.855C1294.87 981.337 1294.35 981.079 1293.69 981.079C1292.87 981.079 1292.25 981.442 1291.84 982.17V985.957C1292.25 986.679 1292.87 987.041 1293.7 987.041C1294.35 987.041 1294.87 986.784 1295.25 986.271C1295.63 985.754 1295.83 984.987 1295.83 983.972ZM1302.2 988.146C1301.12 988.146 1300.25 987.795 1299.58 987.092C1298.9 986.384 1298.57 985.439 1298.57 984.257V984.008C1298.57 983.222 1298.71 982.521 1299.01 981.906C1299.32 981.286 1299.74 980.803 1300.27 980.456C1300.81 980.104 1301.4 979.929 1302.03 979.929C1303.06 979.929 1303.86 980.268 1304.43 980.947C1305 981.625 1305.29 982.597 1305.29 983.862V984.426H1299.92C1299.94 985.207 1300.17 985.839 1300.6 986.323C1301.04 986.801 1301.6 987.041 1302.27 987.041C1302.75 987.041 1303.16 986.943 1303.49 986.748C1303.82 986.552 1304.11 986.293 1304.36 985.971L1305.19 986.616C1304.52 987.636 1303.53 988.146 1302.2 988.146ZM1302.03 981.042C1301.48 981.042 1301.02 981.242 1300.65 981.643C1300.28 982.038 1300.05 982.595 1299.96 983.312H1303.93V983.21C1303.9 982.521 1303.71 981.989 1303.38 981.613C1303.05 981.232 1302.6 981.042 1302.03 981.042ZM1314.55 978.156V980.075H1316.03V981.123H1314.55V986.037C1314.55 986.354 1314.61 986.594 1314.75 986.755C1314.88 986.911 1315.1 986.989 1315.42 986.989C1315.58 986.989 1315.79 986.96 1316.06 986.901V988C1315.71 988.098 1315.36 988.146 1315.02 988.146C1314.42 988.146 1313.96 987.963 1313.65 987.597C1313.35 987.231 1313.19 986.711 1313.19 986.037V981.123H1311.75V980.075H1313.19V978.156H1314.55ZM1317.11 983.964C1317.11 983.188 1317.26 982.49 1317.57 981.87C1317.87 981.25 1318.3 980.771 1318.84 980.434C1319.39 980.097 1320.01 979.929 1320.71 979.929C1321.79 979.929 1322.66 980.302 1323.32 981.049C1323.99 981.796 1324.33 982.79 1324.33 984.03V984.125C1324.33 984.897 1324.18 985.59 1323.88 986.206C1323.59 986.816 1323.16 987.292 1322.61 987.634C1322.07 987.976 1321.44 988.146 1320.72 988.146C1319.65 988.146 1318.78 987.773 1318.11 987.026C1317.44 986.279 1317.11 985.29 1317.11 984.06V983.964ZM1318.47 984.125C1318.47 985.004 1318.68 985.71 1319.08 986.242C1319.49 986.774 1320.04 987.041 1320.72 987.041C1321.41 987.041 1321.96 986.772 1322.36 986.235C1322.77 985.693 1322.97 984.936 1322.97 983.964C1322.97 983.095 1322.76 982.392 1322.35 981.855C1321.94 981.313 1321.39 981.042 1320.71 981.042C1320.04 981.042 1319.5 981.308 1319.09 981.84C1318.68 982.373 1318.47 983.134 1318.47 984.125ZM1189.7 1001.97C1189.7 1000.74 1189.99 999.755 1190.56 999.027C1191.13 998.295 1191.89 997.929 1192.83 997.929C1193.8 997.929 1194.55 998.271 1195.09 998.954L1195.16 998.075H1196.4V1005.81C1196.4 1006.83 1196.09 1007.64 1195.48 1008.23C1194.88 1008.82 1194.06 1009.12 1193.04 1009.12C1192.46 1009.12 1191.91 1009 1191.36 1008.75C1190.81 1008.51 1190.39 1008.18 1190.11 1007.75L1190.81 1006.94C1191.39 1007.66 1192.1 1008.01 1192.94 1008.01C1193.6 1008.01 1194.11 1007.83 1194.48 1007.46C1194.85 1007.09 1195.04 1006.56 1195.04 1005.89V1005.21C1194.49 1005.83 1193.75 1006.15 1192.82 1006.15C1191.89 1006.15 1191.14 1005.77 1190.56 1005.03C1189.99 1004.28 1189.7 1003.26 1189.7 1001.97ZM1191.07 1002.13C1191.07 1003.02 1191.25 1003.72 1191.61 1004.23C1191.98 1004.74 1192.49 1005 1193.15 1005C1194.01 1005 1194.63 1004.61 1195.04 1003.83V1000.21C1194.62 999.457 1194 999.079 1193.17 999.079C1192.51 999.079 1191.99 999.335 1191.62 999.848C1191.25 1000.36 1191.07 1001.12 1191.07 1002.13ZM1201.74 1006.15C1200.66 1006.15 1199.79 1005.79 1199.11 1005.09C1198.44 1004.38 1198.1 1003.44 1198.1 1002.26V1002.01C1198.1 1001.22 1198.25 1000.52 1198.55 999.906C1198.85 999.286 1199.27 998.803 1199.81 998.456C1200.35 998.104 1200.94 997.929 1201.57 997.929C1202.6 997.929 1203.4 998.268 1203.97 998.947C1204.54 999.625 1204.83 1000.6 1204.83 1001.86V1002.43H1199.46C1199.48 1003.21 1199.71 1003.84 1200.14 1004.32C1200.58 1004.8 1201.14 1005.04 1201.81 1005.04C1202.29 1005.04 1202.69 1004.94 1203.03 1004.75C1203.36 1004.55 1203.65 1004.29 1203.9 1003.97L1204.73 1004.62C1204.06 1005.64 1203.06 1006.15 1201.74 1006.15ZM1201.57 999.042C1201.02 999.042 1200.56 999.242 1200.19 999.643C1199.82 1000.04 1199.59 1000.59 1199.5 1001.31H1203.47V1001.21C1203.43 1000.52 1203.25 999.989 1202.92 999.613C1202.58 999.232 1202.13 999.042 1201.57 999.042ZM1208.24 996.156V998.075H1209.72V999.123H1208.24V1004.04C1208.24 1004.35 1208.31 1004.59 1208.44 1004.75C1208.57 1004.91 1208.79 1004.99 1209.11 1004.99C1209.27 1004.99 1209.48 1004.96 1209.76 1004.9V1006C1209.4 1006.1 1209.05 1006.15 1208.72 1006.15C1208.11 1006.15 1207.65 1005.96 1207.35 1005.6C1207.04 1005.23 1206.89 1004.71 1206.89 1004.04V999.123H1205.44V998.075H1206.89V996.156H1208.24ZM1214.67 1001.96C1214.67 1001.19 1214.82 1000.49 1215.13 999.87C1215.43 999.25 1215.86 998.771 1216.4 998.434C1216.95 998.097 1217.57 997.929 1218.27 997.929C1219.35 997.929 1220.22 998.302 1220.88 999.049C1221.55 999.796 1221.89 1000.79 1221.89 1002.03V1002.13C1221.89 1002.9 1221.74 1003.59 1221.44 1004.21C1221.15 1004.82 1220.72 1005.29 1220.17 1005.63C1219.62 1005.98 1219 1006.15 1218.28 1006.15C1217.21 1006.15 1216.34 1005.77 1215.67 1005.03C1215 1004.28 1214.67 1003.29 1214.67 1002.06V1001.96ZM1216.03 1002.13C1216.03 1003 1216.24 1003.71 1216.64 1004.24C1217.05 1004.77 1217.6 1005.04 1218.28 1005.04C1218.97 1005.04 1219.52 1004.77 1219.92 1004.23C1220.33 1003.69 1220.53 1002.94 1220.53 1001.96C1220.53 1001.1 1220.32 1000.39 1219.91 999.855C1219.5 999.313 1218.95 999.042 1218.27 999.042C1217.6 999.042 1217.06 999.308 1216.65 999.84C1216.24 1000.37 1216.03 1001.13 1216.03 1002.13ZM1224.87 998.075L1224.91 999.071C1225.52 998.31 1226.31 997.929 1227.28 997.929C1228.96 997.929 1229.8 998.874 1229.82 1000.76V1006H1228.46V1000.76C1228.46 1000.18 1228.33 999.762 1228.07 999.489C1227.81 999.215 1227.42 999.079 1226.87 999.079C1226.43 999.079 1226.05 999.196 1225.72 999.43C1225.38 999.665 1225.13 999.972 1224.94 1000.35V1006H1223.58V998.075H1224.87ZM1235.15 1006.15C1234.08 1006.15 1233.2 1005.79 1232.53 1005.09C1231.85 1004.38 1231.52 1003.44 1231.52 1002.26V1002.01C1231.52 1001.22 1231.67 1000.52 1231.96 999.906C1232.27 999.286 1232.69 998.803 1233.22 998.456C1233.77 998.104 1234.35 997.929 1234.98 997.929C1236.01 997.929 1236.81 998.268 1237.38 998.947C1237.96 999.625 1238.24 1000.6 1238.24 1001.86V1002.43H1232.87C1232.89 1003.21 1233.12 1003.84 1233.55 1004.32C1233.99 1004.8 1234.55 1005.04 1235.22 1005.04C1235.7 1005.04 1236.11 1004.94 1236.44 1004.75C1236.77 1004.55 1237.06 1004.29 1237.31 1003.97L1238.14 1004.62C1237.47 1005.64 1236.48 1006.15 1235.15 1006.15ZM1234.98 999.042C1234.43 999.042 1233.98 999.242 1233.6 999.643C1233.23 1000.04 1233 1000.59 1232.92 1001.31H1236.89V1001.21C1236.85 1000.52 1236.66 999.989 1236.33 999.613C1236 999.232 1235.55 999.042 1234.98 999.042ZM1244.94 998.075V1006.92C1244.94 1008.44 1244.24 1009.2 1242.86 1009.2C1242.56 1009.2 1242.29 1009.16 1242.03 1009.07V1007.98C1242.19 1008.02 1242.4 1008.04 1242.65 1008.04C1242.95 1008.04 1243.18 1007.96 1243.34 1007.79C1243.5 1007.63 1243.58 1007.35 1243.58 1006.94V998.075H1244.94ZM1243.44 995.973C1243.44 995.758 1243.51 995.575 1243.64 995.424C1243.78 995.268 1243.97 995.189 1244.23 995.189C1244.5 995.189 1244.7 995.265 1244.83 995.417C1244.97 995.568 1245.04 995.753 1245.04 995.973C1245.04 996.193 1244.97 996.376 1244.83 996.522C1244.7 996.669 1244.5 996.742 1244.23 996.742C1243.97 996.742 1243.77 996.669 1243.64 996.522C1243.51 996.376 1243.44 996.193 1243.44 995.973ZM1252.02 1005.22C1251.49 1005.84 1250.72 1006.15 1249.7 1006.15C1248.85 1006.15 1248.21 1005.9 1247.76 1005.41C1247.32 1004.92 1247.1 1004.19 1247.1 1003.23V998.075H1248.45V1003.19C1248.45 1004.4 1248.94 1005 1249.92 1005C1250.95 1005 1251.64 1004.61 1251.98 1003.84V998.075H1253.34V1006H1252.05L1252.02 1005.22ZM1260.02 1003.9C1260.02 1003.53 1259.88 1003.25 1259.6 1003.05C1259.32 1002.84 1258.84 1002.67 1258.16 1002.52C1257.47 1002.37 1256.93 1002.2 1256.52 1001.99C1256.12 1001.79 1255.82 1001.54 1255.63 1001.26C1255.44 1000.98 1255.34 1000.64 1255.34 1000.25C1255.34 999.601 1255.62 999.052 1256.16 998.603C1256.71 998.153 1257.42 997.929 1258.27 997.929C1259.17 997.929 1259.9 998.161 1260.46 998.625C1261.02 999.088 1261.3 999.682 1261.3 1000.4H1259.94C1259.94 1000.03 1259.78 999.713 1259.46 999.445C1259.15 999.176 1258.75 999.042 1258.27 999.042C1257.78 999.042 1257.39 999.149 1257.12 999.364C1256.84 999.579 1256.7 999.86 1256.7 1000.21C1256.7 1000.53 1256.83 1000.78 1257.09 1000.95C1257.34 1001.11 1257.81 1001.27 1258.48 1001.42C1259.16 1001.57 1259.71 1001.75 1260.13 1001.96C1260.55 1002.17 1260.86 1002.43 1261.06 1002.73C1261.27 1003.02 1261.37 1003.38 1261.37 1003.8C1261.37 1004.51 1261.09 1005.08 1260.52 1005.51C1259.95 1005.93 1259.22 1006.15 1258.32 1006.15C1257.68 1006.15 1257.12 1006.03 1256.63 1005.81C1256.14 1005.58 1255.76 1005.27 1255.48 1004.87C1255.21 1004.47 1255.07 1004.03 1255.07 1003.56H1256.43C1256.45 1004.02 1256.63 1004.38 1256.97 1004.65C1257.31 1004.91 1257.76 1005.04 1258.32 1005.04C1258.83 1005.04 1259.24 1004.94 1259.55 1004.73C1259.86 1004.52 1260.02 1004.24 1260.02 1003.9ZM1264.97 996.156V998.075H1266.45V999.123H1264.97V1004.04C1264.97 1004.35 1265.04 1004.59 1265.17 1004.75C1265.3 1004.91 1265.53 1004.99 1265.85 1004.99C1266 1004.99 1266.22 1004.96 1266.49 1004.9V1006C1266.13 1006.1 1265.79 1006.15 1265.45 1006.15C1264.84 1006.15 1264.39 1005.96 1264.08 1005.6C1263.77 1005.23 1263.62 1004.71 1263.62 1004.04V999.123H1262.18V998.075H1263.62V996.156H1264.97ZM1273.24 1006H1271.88V994.75H1273.24V1006ZM1276.88 1006H1275.53V998.075H1276.88V1006ZM1275.42 995.973C1275.42 995.753 1275.48 995.568 1275.62 995.417C1275.75 995.265 1275.95 995.189 1276.22 995.189C1276.48 995.189 1276.68 995.265 1276.82 995.417C1276.95 995.568 1277.02 995.753 1277.02 995.973C1277.02 996.193 1276.95 996.376 1276.82 996.522C1276.68 996.669 1276.48 996.742 1276.22 996.742C1275.95 996.742 1275.75 996.669 1275.62 996.522C1275.48 996.376 1275.42 996.193 1275.42 995.973ZM1281.27 1002.33L1280.42 1003.22V1006H1279.07V994.75H1280.42V1001.55L1281.15 1000.68L1283.61 998.075H1285.26L1282.18 1001.39L1285.62 1006H1284.03L1281.27 1002.33ZM1289.8 1006.15C1288.73 1006.15 1287.85 1005.79 1287.18 1005.09C1286.51 1004.38 1286.17 1003.44 1286.17 1002.26V1002.01C1286.17 1001.22 1286.32 1000.52 1286.62 999.906C1286.92 999.286 1287.34 998.803 1287.88 998.456C1288.42 998.104 1289 997.929 1289.63 997.929C1290.67 997.929 1291.47 998.268 1292.04 998.947C1292.61 999.625 1292.89 1000.6 1292.89 1001.86V1002.43H1287.53C1287.54 1003.21 1287.77 1003.84 1288.21 1004.32C1288.65 1004.8 1289.2 1005.04 1289.88 1005.04C1290.35 1005.04 1290.76 1004.94 1291.09 1004.75C1291.42 1004.55 1291.71 1004.29 1291.96 1003.97L1292.79 1004.62C1292.13 1005.64 1291.13 1006.15 1289.8 1006.15ZM1289.63 999.042C1289.09 999.042 1288.63 999.242 1288.26 999.643C1287.89 1000.04 1287.66 1000.59 1287.57 1001.31H1291.54V1001.21C1291.5 1000.52 1291.31 999.989 1290.98 999.613C1290.65 999.232 1290.2 999.042 1289.63 999.042ZM1300.03 996.156V998.075H1301.51V999.123H1300.03V1004.04C1300.03 1004.35 1300.09 1004.59 1300.23 1004.75C1300.36 1004.91 1300.58 1004.99 1300.9 1004.99C1301.06 1004.99 1301.27 1004.96 1301.54 1004.9V1006C1301.19 1006.1 1300.84 1006.15 1300.5 1006.15C1299.9 1006.15 1299.44 1005.96 1299.13 1005.6C1298.83 1005.23 1298.67 1004.71 1298.67 1004.04V999.123H1297.23V998.075H1298.67V996.156H1300.03ZM1304.45 999.035C1305.05 998.297 1305.83 997.929 1306.8 997.929C1308.47 997.929 1309.31 998.874 1309.33 1000.76V1006H1307.97V1000.76C1307.97 1000.18 1307.84 999.762 1307.58 999.489C1307.33 999.215 1306.93 999.079 1306.39 999.079C1305.95 999.079 1305.56 999.196 1305.23 999.43C1304.9 999.665 1304.64 999.972 1304.45 1000.35V1006H1303.1V994.75H1304.45V999.035ZM1312.83 1006H1311.48V998.075H1312.83V1006ZM1311.37 995.973C1311.37 995.753 1311.43 995.568 1311.56 995.417C1311.7 995.265 1311.9 995.189 1312.16 995.189C1312.43 995.189 1312.63 995.265 1312.76 995.417C1312.9 995.568 1312.97 995.753 1312.97 995.973C1312.97 996.193 1312.9 996.376 1312.76 996.522C1312.63 996.669 1312.43 996.742 1312.16 996.742C1311.9 996.742 1311.7 996.669 1311.56 996.522C1311.43 996.376 1311.37 996.193 1311.37 995.973ZM1319.62 1003.9C1319.62 1003.53 1319.48 1003.25 1319.2 1003.05C1318.93 1002.84 1318.45 1002.67 1317.76 1002.52C1317.08 1002.37 1316.53 1002.2 1316.13 1001.99C1315.73 1001.79 1315.43 1001.54 1315.23 1001.26C1315.04 1000.98 1314.95 1000.64 1314.95 1000.25C1314.95 999.601 1315.22 999.052 1315.77 998.603C1316.32 998.153 1317.02 997.929 1317.88 997.929C1318.78 997.929 1319.5 998.161 1320.06 998.625C1320.62 999.088 1320.9 999.682 1320.9 1000.4H1319.54C1319.54 1000.03 1319.38 999.713 1319.06 999.445C1318.75 999.176 1318.36 999.042 1317.88 999.042C1317.38 999.042 1317 999.149 1316.72 999.364C1316.44 999.579 1316.3 999.86 1316.3 1000.21C1316.3 1000.53 1316.43 1000.78 1316.69 1000.95C1316.95 1001.11 1317.42 1001.27 1318.09 1001.42C1318.77 1001.57 1319.32 1001.75 1319.74 1001.96C1320.16 1002.17 1320.47 1002.43 1320.67 1002.73C1320.87 1003.02 1320.98 1003.38 1320.98 1003.8C1320.98 1004.51 1320.69 1005.08 1320.13 1005.51C1319.56 1005.93 1318.82 1006.15 1317.92 1006.15C1317.29 1006.15 1316.72 1006.03 1316.24 1005.81C1315.75 1005.58 1315.36 1005.27 1315.09 1004.87C1314.81 1004.47 1314.68 1004.03 1314.68 1003.56H1316.03C1316.06 1004.02 1316.24 1004.38 1316.57 1004.65C1316.92 1004.91 1317.36 1005.04 1317.92 1005.04C1318.43 1005.04 1318.84 1004.94 1319.15 1004.73C1319.46 1004.52 1319.62 1004.24 1319.62 1003.9Z" fill="black"/>
</g>
<defs>
<clipPath id="clip0_376_3">
<rect width="1920" height="1022" fill="white" transform="translate(-2)"/>
</clipPath>
</defs>
</svg>
