<svg width="58" height="50" viewBox="0 0 58 50" fill="none" xmlns="http://www.w3.org/2000/svg">
<path d="M22.7545 12.6143L22.8121 13.1113C23.4787 13.0348 24.8628 13.0002 26.1207 13.0088C26.7455 13.0131 27.3275 13.028 27.7613 13.0527C27.8041 13.0552 27.8451 13.058 27.8844 13.0605C27.8352 13.1369 27.7814 13.2204 27.7193 13.3047C27.5554 13.5271 27.4002 13.7466 27.2847 13.9229C27.2277 14.0099 27.1764 14.0931 27.1373 14.1631C27.1181 14.1974 27.0971 14.2373 27.0797 14.2773C27.0755 14.2868 27.0533 14.3344 27.0387 14.4014C27.0292 14.4235 27.0138 14.4593 26.9888 14.5098C26.9364 14.616 26.8578 14.7653 26.7574 14.9492C26.5571 15.3159 26.2783 15.8044 25.9703 16.3291C25.354 17.3791 24.5685 18.7204 24.2418 19.3271L24.234 19.3408C23.9444 19.92 23.4269 20.8205 23.0933 21.332L23.0885 21.3389C22.6134 22.0921 21.7218 23.5897 20.9508 24.9053C20.5646 25.5641 20.207 26.1799 19.9459 26.6377C19.8155 26.8662 19.7079 27.0574 19.6324 27.1953C19.5951 27.2635 19.5635 27.3221 19.5406 27.3672C19.5295 27.389 19.5176 27.4136 19.5074 27.4365C19.5026 27.4473 19.4952 27.4648 19.4879 27.4854C19.4866 27.4888 19.4846 27.4931 19.483 27.498H19.484C19.4731 27.5203 19.4546 27.5564 19.4273 27.6074C19.3728 27.7094 19.2914 27.8555 19.189 28.0361C19.0869 28.2163 18.9644 28.4286 18.8277 28.6631L18.3804 29.4229L18.3765 29.4297C18.0666 29.9692 17.7778 30.4775 17.566 30.8633C17.4606 31.0554 17.3715 31.2214 17.3082 31.3477C17.2769 31.41 17.2487 31.4692 17.2271 31.5195C17.2166 31.5442 17.2042 31.5742 17.1939 31.6055C17.1913 31.6134 17.1831 31.6405 17.1754 31.6787C17.1738 31.682 17.1729 31.6866 17.1705 31.6914C17.1516 31.7297 17.1187 31.7877 17.0719 31.8633C16.9789 32.013 16.8459 32.2053 16.6949 32.3994C16.525 32.6179 16.3718 32.8387 16.2584 33.0215C16.2022 33.1121 16.1513 33.2005 16.1129 33.2783C16.0939 33.3168 16.0734 33.3604 16.0572 33.4053C16.051 33.4224 16.0401 33.4554 16.0308 33.498C16.0219 33.5178 16.0086 33.5473 15.9888 33.5869C15.9411 33.6824 15.8694 33.8183 15.7779 33.9844C15.5959 34.3148 15.3421 34.7542 15.0601 35.2168C14.7646 35.6897 14.4978 36.1753 14.3033 36.5762C14.2063 36.7761 14.124 36.9618 14.065 37.1172C14.0357 37.1944 14.0101 37.2703 13.9908 37.3408C13.9823 37.372 13.9729 37.4112 13.9654 37.4541L13.9517 37.5918L13.9654 37.7119C13.9722 37.7447 13.9798 37.7688 13.983 37.7793C13.9942 37.8158 14.0076 37.8532 14.0211 37.8867C14.0483 37.9546 14.0858 38.0365 14.1285 38.127C14.2146 38.3094 14.3357 38.5503 14.4801 38.8281C14.7696 39.3851 15.1605 40.1069 15.5689 40.8418C15.9775 41.5769 16.406 42.3288 16.7701 42.9453C17.1259 43.5478 17.4406 44.0562 17.6148 44.2773V44.2764C17.6498 44.3209 17.6842 44.3512 17.7066 44.3682C17.7442 44.3964 17.7784 44.4136 17.7984 44.4229C17.8377 44.441 17.8711 44.4504 17.8853 44.4541C17.9162 44.4622 17.9431 44.4662 17.9547 44.4678C17.9815 44.4715 18.0097 44.4731 18.0318 44.4746C18.0793 44.4779 18.1435 44.4808 18.2183 44.4834C18.3698 44.4886 18.5884 44.4936 18.8648 44.498C19.4191 44.507 20.2171 44.5153 21.1978 44.5225C23.1597 44.5368 25.861 44.5481 28.8306 44.5596H28.8316C34.1788 44.571 37.1413 44.5596 38.7642 44.458C39.5607 44.4081 40.0997 44.3343 40.4469 44.2002C40.6294 44.1297 40.8081 44.0243 40.9351 43.8516C41.0434 43.7043 41.0821 43.5496 41.0933 43.415C41.0941 43.4134 41.0955 43.4119 41.0963 43.4102C41.1165 43.3639 41.1505 43.2945 41.1978 43.2012C41.2919 43.0157 41.4303 42.7578 41.6041 42.4443C41.951 41.8188 42.4305 40.9859 42.9566 40.0938C44.0096 38.3082 45.5231 35.7373 46.3062 34.3555L46.3072 34.3564L47.5845 32.1514H49.6588C50.3061 32.1514 50.9715 32.1395 51.523 32.1191C52.0578 32.0994 52.5282 32.0709 52.7554 32.0283C52.8883 32.0034 53.0417 31.9986 53.1773 32.0117C53.186 32.0126 53.1944 32.0147 53.2027 32.0156C53.1403 32.1558 53.045 32.3489 52.9019 32.6162C52.3202 33.703 51.0431 35.8749 48.4244 40.3428C47.5808 41.7791 46.5928 43.4797 46.2398 44.1377C45.8988 44.7515 45.26 45.8463 44.8453 46.5605C44.6225 46.9247 44.4231 47.2896 44.2769 47.585C44.2035 47.7334 44.1399 47.8701 44.0943 47.9834C44.0718 48.0394 44.0508 48.0961 44.0347 48.1494C44.0299 48.1656 44.0238 48.1898 44.0172 48.2188C43.9748 48.2444 43.9382 48.2714 43.9088 48.2959C43.8318 48.3601 43.7597 48.4381 43.6978 48.5137C43.6349 48.5906 43.5709 48.6786 43.5084 48.7725L43.3287 49.0654L43.0826 49.5H15.1627L14.606 48.7451C14.2311 48.2154 13.7936 47.492 13.6207 47.1494C13.4274 46.7388 13.0726 46.1025 12.8345 45.7217L12.8306 45.7148L12.6187 45.375C12.3831 44.9885 12.0938 44.4853 11.8951 44.0879L11.8892 44.0771L11.8834 44.0654L11.6519 43.6758C11.5762 43.5537 11.5031 43.4412 11.4351 43.3447C11.3683 43.25 11.2976 43.1579 11.2301 43.085C11.1972 43.0496 11.153 43.0048 11.1002 42.9658C11.0847 42.9544 11.0479 42.9284 10.9947 42.9033C10.9633 42.8524 10.9235 42.7724 10.8931 42.6738L10.8902 42.6631L10.8248 42.4971C10.742 42.3047 10.6102 42.0388 10.4635 41.7578C10.2593 41.367 10.0032 40.9024 9.74763 40.4609L9.74568 40.457L8.94881 39.0869C8.70305 38.6576 8.49442 38.2867 8.3824 38.0742H8.38338L8.09431 37.5137L10.5728 33.2324L10.5738 33.2305C13.2346 28.5969 13.83 27.5679 14.6539 26.1719L14.6549 26.1689C15.1388 25.3394 15.8062 24.1665 16.6099 22.7197L16.609 22.7188C16.8638 22.2789 17.1681 21.7841 17.2838 21.6299C17.4478 21.411 17.9241 20.5967 18.3316 19.8496C18.7419 19.0974 19.3987 17.9653 19.7994 17.3643L19.8111 17.3467C20.1979 16.7097 20.784 15.7238 21.0719 15.124C21.3464 14.5806 21.5473 14.1857 21.7115 13.8896C21.8789 13.5878 21.9909 13.4247 22.0806 13.3281C22.2035 13.196 22.2697 13.1714 22.8101 13.1113L22.7545 12.6143ZM17.1637 31.7891C17.1637 31.7425 17.1703 31.7084 17.1734 31.6953C17.1738 31.6937 17.174 31.6919 17.1744 31.6904C17.1692 31.719 17.1637 31.7526 17.1637 31.7891ZM10.7301 13C11.4919 12.9972 12.2449 13.0082 12.8199 13.0342C12.9874 13.0418 13.1374 13.0509 13.2662 13.0605C13.2037 13.1725 13.1266 13.2976 13.0357 13.4248L13.0318 13.4316L13.0269 13.4385C12.863 13.6844 12.7088 13.9273 12.5943 14.1201C12.5377 14.2156 12.4874 14.3044 12.4498 14.3779C12.4313 14.414 12.412 14.454 12.3961 14.4932C12.3882 14.5126 12.3783 14.5387 12.3697 14.5684C12.368 14.5743 12.3655 14.5831 12.3629 14.5938C12.3617 14.5962 12.3614 14.5995 12.3599 14.6025C12.3419 14.6406 12.3116 14.6987 12.2691 14.7783C12.1847 14.9365 12.0604 15.1591 11.9049 15.4316C11.5944 15.9756 11.1664 16.7069 10.6969 17.4971C10.226 18.2895 9.79426 19.0256 9.48006 19.5732C9.3232 19.8467 9.19454 20.076 9.10408 20.2422C9.05924 20.3246 9.02111 20.396 8.99373 20.4512C8.98047 20.4779 8.96638 20.5074 8.95467 20.5352C8.94901 20.5486 8.94075 20.5686 8.93318 20.5918C8.93198 20.5955 8.92435 20.6175 8.91756 20.6504V20.6514C8.90469 20.6801 8.88132 20.7265 8.84724 20.7871C8.77971 20.9072 8.68125 21.0619 8.56697 21.2178L8.56111 21.2266L8.55623 21.2344C7.8303 22.3116 5.11626 27.0277 3.98885 29.167C3.8633 29.4001 3.73337 29.6117 3.62263 29.7803C3.53685 29.669 3.43936 29.5354 3.33748 29.3857C3.02332 28.9242 2.68998 28.3605 2.49959 27.9375V27.9355L2.32088 27.5625C2.13458 27.1975 1.8797 26.7823 1.15877 25.6494L1.15779 25.6484L0.996658 25.375C0.856627 25.1153 0.778587 24.8978 0.749588 24.7422C0.742153 24.7023 0.740043 24.6713 0.738846 24.6484C0.758995 24.6327 0.774583 24.6209 0.781815 24.6143C0.812007 24.5866 0.839058 24.5572 0.860916 24.5322C0.905429 24.4813 0.954008 24.4188 1.00349 24.3516C1.10382 24.2153 1.22939 24.0305 1.37068 23.8135C1.65431 23.3778 2.01424 22.7914 2.38435 22.1553C3.121 20.8892 3.89158 19.5977 4.11092 19.2686L4.10994 19.2676C4.24233 19.0855 4.3601 18.9037 4.44588 18.748C4.48981 18.6683 4.52985 18.589 4.56013 18.5166C4.57521 18.4806 4.5907 18.4389 4.6031 18.3965C4.60764 18.3809 4.61243 18.3587 4.61775 18.332C4.62522 18.3157 4.63601 18.2928 4.65096 18.2627C4.6933 18.1774 4.75704 18.0562 4.83846 17.9062C5.00056 17.6078 5.22488 17.2098 5.47029 16.7832C5.96282 15.927 6.53028 14.974 6.84334 14.4932L6.84236 14.4922C7.0122 14.2544 7.20052 13.8499 7.31111 13.5869C7.35965 13.4918 7.43277 13.3842 7.51326 13.2881C7.57555 13.2137 7.62982 13.1635 7.6656 13.1338H7.66756C7.71406 13.1247 7.78295 13.1148 7.87556 13.1045C8.05983 13.084 8.31034 13.065 8.60896 13.0498C9.20467 13.0195 9.96833 13.0028 10.7301 13ZM19.4566 27.6602C19.4567 27.6109 19.464 27.573 19.4674 27.5576C19.4684 27.5529 19.4693 27.548 19.4703 27.5439C19.4653 27.5649 19.4567 27.6074 19.4566 27.6602ZM8.90681 20.7568L8.9156 20.665C8.9159 20.6637 8.91629 20.6624 8.91658 20.6611C8.91158 20.688 8.90682 20.7207 8.90681 20.7568ZM28.9703 0.5C32.8905 0.5 36.4837 0.523249 39.1158 0.557617C40.4322 0.574806 41.5071 0.594815 42.2613 0.616211C42.6385 0.626914 42.9324 0.637505 43.1353 0.648438C43.1943 0.651616 43.2442 0.655266 43.2847 0.658203C43.31 0.687904 43.3401 0.723327 43.3707 0.765625C43.4118 0.822455 43.452 0.884594 43.4888 0.946289L43.5855 1.12695C43.7315 1.50932 44.0649 2.07566 44.3072 2.4502L44.315 2.46191C44.5544 2.81008 44.8177 3.27199 44.899 3.43457C45.001 3.63858 45.5159 4.54826 46.0679 5.44531C46.3394 5.88642 46.5813 6.30356 46.7545 6.61914C46.8414 6.7776 46.9085 6.90673 46.9527 6.99805C46.9706 7.03503 46.9822 7.06218 46.9898 7.08008C46.996 7.11052 47.004 7.13298 47.0074 7.14355C47.0172 7.17408 47.028 7.20103 47.0367 7.2207C47.0544 7.26062 47.0764 7.30187 47.0972 7.33984C47.1399 7.41756 47.1981 7.51346 47.2633 7.61719C47.3947 7.82624 47.571 8.09144 47.7574 8.35938L47.7642 8.36914L47.772 8.37891C47.9543 8.61472 48.1155 8.85677 48.2291 9.04688C48.286 9.14223 48.3275 9.21956 48.3531 9.27246C48.3592 9.28497 48.3636 9.29465 48.3668 9.30176C48.3752 9.35071 48.3856 9.39016 48.3922 9.41113C48.4073 9.45945 48.4266 9.51013 48.4469 9.55859C48.4879 9.65678 48.5446 9.77431 48.6099 9.90039C48.74 10.1514 48.919 10.4604 49.1207 10.7695V10.7705C49.2799 11.0234 49.4208 11.2768 49.5308 11.4902C49.1939 11.5164 48.7331 11.5428 48.1822 11.5635C46.9692 11.6091 45.3458 11.6389 43.7144 11.6504C42.0833 11.6618 40.4485 11.6545 39.2125 11.626C38.5936 11.6117 38.0804 11.592 37.7193 11.5674C37.7009 11.5661 37.6831 11.5628 37.6656 11.5615C37.6823 11.5225 37.6995 11.4821 37.7193 11.4424C37.9126 11.1223 38.1416 10.6663 38.2711 10.4072L38.275 10.3984L38.2789 10.3906C38.3786 10.1712 38.8882 9.28238 39.4215 8.40137L39.4234 8.39746C39.6812 7.96388 39.9195 7.52347 40.0894 7.15625C40.1739 6.97378 40.2466 6.79886 40.2955 6.64648C40.3199 6.57051 40.3409 6.49038 40.3541 6.41211C40.3659 6.34171 40.3783 6.23325 40.3551 6.11719C40.3101 5.89331 40.1624 5.74385 39.9957 5.65723C39.8571 5.58522 39.6885 5.54621 39.5142 5.51855C39.1551 5.46158 38.5677 5.42461 37.6178 5.39746C35.7033 5.34276 32.2021 5.32566 25.8297 5.30273C21.99 5.29127 18.4777 5.25682 15.9146 5.21387C14.6327 5.19238 13.5896 5.16841 12.8629 5.14453C12.6738 5.13832 12.5072 5.12919 12.3638 5.12305C12.5211 4.78769 12.7509 4.33816 13.023 3.83203C13.5637 2.82631 14.2596 1.62266 14.8512 0.69043C14.948 0.675409 15.0939 0.658695 15.3023 0.643555C15.7768 0.609097 16.5205 0.582024 17.6187 0.560547C19.8121 0.517655 23.3852 0.500001 28.9703 0.5ZM46.9888 7.06348C46.9886 7.0622 46.9881 7.06092 46.9879 7.05957C46.9853 7.04654 46.9801 7.01464 46.9801 6.97266C46.9801 7.00652 46.9843 7.03726 46.9888 7.06348Z" fill="black" stroke="black"/>
<path d="M32.5945 19.4723C32.2734 19.8392 31.7458 20.642 31.4247 21.2383C30.6679 22.7291 29.9798 23.9677 24.2917 33.7613C23.7871 34.5869 23.3972 35.3668 23.3972 35.4585C23.3972 35.5502 23.1678 35.8713 22.9156 36.1466C22.2963 36.8117 22.4798 37.4998 23.2367 37.2934C23.5119 37.2246 26.5853 37.1558 30.0715 37.1558H36.3789L36.8835 36.1695C37.5257 34.931 38.3284 33.5319 38.8559 32.7521C39.5669 31.6741 39.3605 31.5824 35.989 31.5594C32.9844 31.5365 32.9156 31.5365 32.8468 31.0319C32.8009 30.7108 33.2367 29.7246 33.9706 28.509C34.6358 27.408 35.3697 26.1236 35.5991 25.642L36.0119 24.7704H46.7917C53.5578 24.7704 57.5715 24.6787 57.5715 24.5411C57.5715 24.2888 54.911 19.7704 54.4064 19.197C54.0853 18.8301 53.3284 18.8071 43.6266 18.8071L33.1908 18.8301L32.5945 19.4723Z" fill="black"/>
</svg>
